<svg width="116" height="42" viewBox="0 0 116 42" fill="none" xmlns="http://www.w3.org/2000/svg">
<path d="M97.4774 17.5159C97.4774 15.0279 97.4774 12.5398 97.4774 10.0518C97.4774 9.56147 97.4411 9.60869 97.9351 9.60505C98.745 9.60505 99.5586 9.60505 100.369 9.60505C100.576 9.60505 100.768 9.59416 100.881 9.38349C100.993 9.17283 100.906 9.00211 100.794 8.82777C99.6458 7.01895 98.5017 5.21013 97.3612 3.40132C96.751 2.43516 96.1481 1.46537 95.5379 0.495583C95.4725 0.393882 95.4144 0.28855 95.3381 0.197746C95.1274 -0.0637704 94.8369 -0.0674026 94.6335 0.197746C94.5063 0.364825 94.4083 0.55733 94.2957 0.738938C92.6031 3.41221 90.9105 6.08912 89.2216 8.76239C89.1635 8.8532 89.1054 8.944 89.069 9.04207C88.971 9.30358 89.1235 9.56147 89.4032 9.60142C89.5085 9.61595 89.6175 9.60869 89.7228 9.60869C90.5473 9.60869 91.3718 9.60869 92.1963 9.60869C92.4869 9.60869 92.4869 9.61958 92.4978 9.89563C92.4978 9.96101 92.4978 10.03 92.4978 10.0954C92.4978 14.8572 92.4978 19.6226 92.4978 24.3843C92.4978 27.0104 89.6901 28.7756 87.3692 27.5843C86.0653 26.916 85.3788 25.8009 85.357 24.3299C85.3316 22.3757 85.3497 20.418 85.3497 18.4639C85.3497 18.0753 85.3062 17.6939 85.1427 17.3379C84.7831 16.5534 84.1584 16.1103 83.3085 16.0667C82.3205 16.0521 83.2104 16.0594 82.3205 16.0521C80.1812 16.2083 80.3701 18.275 80.381 18.4675C80.3919 18.6782 80.3846 18.8961 80.3846 19.1068C80.3846 21.5549 80.3846 21.8418 80.3846 24.2899C80.3846 26.1423 80.8895 27.8385 81.9828 29.335C83.5954 31.5397 85.7783 32.7419 88.5061 32.8981C90.718 33.0253 92.6794 32.3388 94.3647 30.9113C96.188 29.3713 97.2014 27.399 97.4266 25.02C97.4593 24.6604 97.4738 24.3044 97.4738 23.9448C97.4738 21.8019 97.4738 19.6625 97.4738 17.5195L97.4774 17.5159Z" fill="#EF7D00"/>
<path d="M98.9161 31.4124C98.9161 28.5793 98.9233 25.7462 98.9161 22.9131C98.9088 21.0934 99.3701 19.4153 100.387 17.9044C101.353 16.466 102.635 15.4018 104.241 14.7371C105.81 14.0833 107.43 13.9235 109.09 14.2577C110.677 14.5737 112.075 15.2783 113.263 16.3861C114.745 17.7736 115.649 19.4771 115.911 21.482C116.216 23.7885 115.751 25.9315 114.338 27.8165C113.274 29.2367 111.836 30.1339 110.176 30.7041C108.599 31.2417 106.965 31.4342 105.312 31.4778C104.913 31.4887 104.513 31.485 104.114 31.4778C103.943 31.4778 103.87 31.5395 103.881 31.7102C103.888 31.8301 103.881 31.9499 103.881 32.0698C103.881 34.3181 103.881 36.5664 103.881 38.8147C103.881 39.7845 103.533 40.5473 102.643 41.0122C102.352 41.1611 102.043 41.2301 101.72 41.2338C100.87 41.2447 100.017 41.2374 99.1667 41.2483C98.9742 41.2483 98.9015 41.1793 98.9124 40.994C98.9197 40.8488 98.9124 40.6998 98.9124 40.5545C98.9124 37.5072 98.9124 34.4634 98.9124 31.416L98.9161 31.4124ZM103.881 24.1699C103.881 24.7946 103.881 25.4193 103.881 26.044C103.881 26.3673 103.888 26.3709 104.215 26.3709C105.305 26.3709 106.398 26.3709 107.488 26.3709C107.782 26.3709 108.073 26.3274 108.356 26.2547C109.831 25.8661 111.135 24.4532 111.022 22.5499C110.938 21.1261 110.277 20.0619 109.013 19.419C106.718 18.2531 103.928 19.9565 103.881 22.5317C103.87 23.0766 103.881 23.6214 103.881 24.1662V24.1699Z" fill="#EF7D00"/>
<path d="M64.0257 31.5719C63.7281 31.3169 63.5156 31.0618 63.7281 30.6792L65.216 27.746C65.3435 27.4909 65.7686 27.2358 66.1087 27.4059C66.1087 27.4059 68.1067 28.5112 69.9347 28.5112C70.3598 28.5112 70.7424 28.2561 70.7424 27.746C70.7424 27.3209 70.4873 26.7257 68.3193 25.9605C65.0035 24.8127 63.5581 22.8997 63.5581 20.2641C63.5581 17.4158 65.5986 15.1202 70.1897 15.1202C72.8679 15.1202 74.9084 15.8429 75.8436 16.4381C76.2262 16.6931 76.5238 17.0757 76.2687 17.5008L74.6958 20.3916C74.5683 20.6467 74.1432 20.7742 73.8031 20.6467C73.8031 20.6467 71.8476 19.6689 70.1897 19.6689C69.6371 19.6689 69.2545 19.7964 69.2545 20.2641C69.2545 20.6892 69.7221 21.1143 71.1675 21.6244C74.6108 22.8147 76.9914 24.1751 76.9914 27.5759C76.9914 30.5517 74.6108 32.9748 69.8071 32.9748C67.0015 32.9748 64.8759 32.2521 64.0257 31.5719Z" fill="#fff"/>
<path d="M44.6646 24.0475C44.6646 19.2438 48.448 15.1202 53.4642 15.1202C57.8003 15.1202 61.5412 18.4361 61.5412 23.1123C61.5412 23.4099 61.4987 23.9625 61.4562 24.2601C61.4137 24.6852 61.0311 24.9828 60.6485 24.9828H50.446C50.5735 26.1306 51.5087 27.7885 53.7193 27.7885C54.782 27.7885 56.0148 27.2783 56.695 26.7682C57.0776 26.4706 57.5027 26.4706 57.7578 26.7682L59.8833 29.3189C60.1383 29.659 60.2234 30.1691 59.8408 30.5517C58.3529 32.0396 56.2274 32.9748 53.5492 32.9748C48.4905 32.9748 44.6646 28.9363 44.6646 24.0475ZM50.9986 21.6669H55.5472C55.4622 20.5616 54.3994 19.6689 53.2942 19.6689C52.1464 19.6689 51.1686 20.5616 50.9986 21.6669Z" fill="#fff"/>
<path d="M35.063 31.7421V3.59994C35.063 3.17483 35.4456 2.79224 35.8707 2.79224H40.5468C40.9719 2.79224 41.3545 3.17483 41.3545 3.59994V31.7421C41.3545 32.1672 40.9719 32.5498 40.5468 32.5498H35.8707C35.4456 32.5498 35.063 32.1672 35.063 31.7421Z" fill="#fff"/>
<path d="M15.6904 27.3634C15.6904 24.09 18.071 21.6669 21.9395 21.6669C23.8524 21.6669 25.2128 22.3471 25.2128 22.3471C25.2128 20.6892 24.9577 19.8389 22.9172 19.8389C21.7694 19.8389 19.7714 20.1365 18.6662 20.4766C18.0285 20.6892 17.7309 20.2215 17.6459 19.5839L17.2633 16.9057C17.1358 16.183 17.5184 15.8854 17.901 15.7579C18.2836 15.6304 21.2593 15.1202 23.5549 15.1202C28.8262 15.1202 30.7391 17.3308 30.7391 22.3471V31.742C30.7391 32.1671 30.3565 32.5497 29.9314 32.5497H28.061C27.8059 32.5497 27.5083 32.4647 27.2958 31.9971L26.7006 30.8493C25.7229 31.742 24.235 32.9748 21.5569 32.9748C18.1985 32.9748 15.6904 30.7217 15.6904 27.3634ZM21.2168 26.9383C21.2168 27.9585 22.0245 28.8087 23.0447 28.8087C24.065 28.8087 24.9152 27.9585 24.9152 26.9383C24.8727 25.9605 24.065 25.1528 23.0447 25.1528C22.0245 25.1528 21.2168 25.9605 21.2168 26.9383Z" fill="#fff"/>
<path d="M0.467615 31.5719C0.170042 31.3169 -0.0425105 31.0618 0.170042 30.6792L1.65791 27.746C1.78544 27.4909 2.21054 27.2358 2.55063 27.4059C2.55063 27.4059 4.54862 28.5112 6.37656 28.5112C6.80167 28.5112 7.18426 28.2561 7.18426 27.746C7.18426 27.3209 6.9292 26.7257 4.76117 25.9605C1.44535 24.8127 0 22.8997 0 20.2641C0 17.4158 2.0405 15.1202 6.63163 15.1202C9.30978 15.1202 11.3503 15.8429 12.2855 16.4381C12.6681 16.6931 12.9657 17.0757 12.7106 17.5008L11.1377 20.3916C11.0102 20.6467 10.5851 20.7742 10.245 20.6467C10.245 20.6467 8.28953 19.6689 6.63163 19.6689C6.07899 19.6689 5.6964 19.7964 5.6964 20.2641C5.6964 20.6892 6.16401 21.1143 7.60937 21.6244C11.0527 22.8147 13.4333 24.1751 13.4333 27.5759C13.4333 30.5517 11.0527 32.9748 6.24903 32.9748C3.44335 32.9748 1.31782 32.2521 0.467615 31.5719Z" fill="#fff"/>
</svg>
